 <svg
              className="w-10 h-10 sm:w-[60px] sm:h-[60px]"
              viewBox="0 0 60 60"
              fill="none"
              xmlns="http://www.w3.org/2000/svg"
            >
              <path
                d="M27.2127 3.56717C27.5839 3.55017 27.9574 3.54167 28.3333 3.54167C33.2251 3.54167 37.7853 4.95833 41.6273 7.4035C38.794 11.7498 35.3954 15.1456 33.643 16.7634C32.266 18.0327 32.2688 20.1393 33.4404 21.4526C35.3941 23.6227 36.6761 26.3131 37.1308 29.1975C37.6295 28.9198 38.1357 28.662 38.6495 28.424C39.2351 28.1511 39.8343 27.8979 40.4472 27.6647C39.7824 24.5321 38.3183 21.6248 36.1973 19.2256C38.0672 17.4831 41.5225 14.0023 44.4762 9.51717C49.2223 13.5825 52.2549 19.2927 52.9649 25.5014C54.1762 25.5057 55.3747 25.568 56.5448 25.6884C55.2103 11.2809 43.0893 0 28.3333 0C12.6848 0 0 12.6848 0 28.3333C0 43.9818 12.6848 56.6667 28.3333 56.6667H28.577C28.6365 56.4986 28.7065 56.3344 28.7867 56.1751C29.3411 55.0757 29.9091 54.0284 30.4909 53.0329C29.7798 53.0943 29.0606 53.125 28.3333 53.125C21.5787 53.125 15.4558 50.4234 10.9834 46.0417C10.9834 45.9907 10.9811 45.9392 10.9763 45.8872C10.6292 41.9078 10.9182 39.6072 11.4127 38.2812C11.8547 37.0912 12.4525 36.6903 13.0843 36.4636C13.464 36.3262 13.8989 36.2412 14.4372 36.1675L14.9515 36.1037C15.3482 36.0556 15.8043 36.0003 16.1897 35.9338C17.4491 35.7113 19.091 35.1999 20.0033 33.3752C20.7782 31.8254 20.7216 30.1835 20.5133 28.8164C20.4085 28.1222 20.2527 27.4352 20.1068 26.8132L20.0501 26.5653C19.9226 26.0199 19.8064 25.5312 19.7186 25.0523C19.5089 23.9133 19.5387 23.2447 19.7356 22.8097C19.8815 22.4839 20.2768 21.9541 21.7402 21.5347C25.0452 20.5912 27.3827 19.1972 28.8193 17.3598C30.2883 15.4785 30.6467 13.345 30.4059 11.3022C30.1679 9.30608 29.3576 7.35392 28.441 5.64683C28.0528 4.92433 27.6335 4.22592 27.2127 3.56717ZM23.2815 4.05733C23.9785 5.06317 24.701 6.16817 25.3215 7.32417C26.1418 8.8485 26.7254 10.3502 26.8883 11.7187C27.0442 13.0404 26.8062 14.1837 26.027 15.1796C25.2167 16.218 23.6583 17.3046 20.7669 18.1305C18.6873 18.7255 17.2224 19.7639 16.5056 21.3548C15.8397 22.8352 16.0027 24.4304 16.2364 25.6941C16.3398 26.2622 16.4772 26.8444 16.6019 27.3799L16.6586 27.6179C16.8031 28.2398 16.9292 28.8065 17.0128 29.3491C17.1813 30.4541 17.1232 31.2162 16.8357 31.7914C16.6855 32.0917 16.4673 32.2872 15.5777 32.4431C15.2731 32.4969 14.9983 32.5295 14.6753 32.5692C14.4627 32.5947 14.2318 32.6216 13.957 32.6598C13.2518 32.742 12.5574 32.8997 11.8858 33.1302C10.3048 33.6997 8.91083 34.8486 8.09342 37.0458C7.65567 38.2188 7.38933 39.6737 7.30858 41.4772C4.83864 37.5388 3.53276 32.9822 3.54167 28.3333C3.54167 16.3724 12.0133 6.38917 23.2815 4.05733ZM58.0125 28.7371C52.1418 27.7893 45.1931 28.4963 39.8466 30.9896C37.1606 32.2433 34.7834 33.9929 33.1911 36.312C31.5732 38.6665 30.8323 41.5182 31.3112 44.7837C31.5368 46.3951 32.0411 47.955 32.8015 49.3935C35.4373 45.5101 38.6362 42.0405 42.2932 39.0986C43.4812 38.1438 44.7234 37.2584 46.0133 36.4466C46.4857 36.1508 46.9676 35.8707 47.4583 35.6065L47.4952 35.5867L47.5207 35.5739L47.5277 35.5697L47.5334 35.5668C47.8693 35.3981 48.2585 35.3698 48.6153 35.488C48.9721 35.6062 49.2673 35.8614 49.436 36.1973C49.6047 36.5331 49.6331 36.9223 49.5148 37.2791C49.3966 37.6359 49.1415 37.9311 48.8056 38.0998L48.7928 38.1055C48.6902 38.1582 48.5887 38.213 48.4883 38.2698C48.2658 38.3945 47.9357 38.5858 47.5136 38.8493C46.3179 39.6031 45.1666 40.4252 44.0654 41.3114C40.309 44.3356 37.0677 47.9487 34.4675 52.0101C34.4344 52.0611 34.399 52.1097 34.3612 52.156C33.2477 53.8608 32.2317 55.6274 31.3182 57.4472C31.2331 57.6136 31.1816 57.7953 31.167 57.9816C31.1523 58.168 31.1746 58.3554 31.2327 58.5331C31.2908 58.7108 31.3835 58.8752 31.5054 59.0169C31.6273 59.1586 31.7761 59.2748 31.9431 59.3587C32.1102 59.4426 32.2922 59.4927 32.4786 59.506C32.6651 59.5192 32.8524 59.4955 33.0296 59.436C33.2068 59.3766 33.3706 59.2827 33.5113 59.1597C33.6521 59.0367 33.7672 58.8871 33.8498 58.7194C34.6958 57.0338 35.6346 55.3965 36.6619 53.8149C37.8944 54.7173 39.2487 55.3959 40.6286 55.8606C42.789 56.5902 45.0528 56.8168 47.0985 56.5703C49.1215 56.3267 51.0793 55.5985 52.462 54.2597C54.2654 52.513 55.3208 50.8668 55.9102 49.1272C56.4839 47.43 56.5689 45.7597 56.6227 44.1348L56.6397 43.622C56.7347 40.5252 56.8466 36.8617 59.3498 31.2021C59.4595 30.9544 59.5108 30.6848 59.4999 30.4142C59.4891 30.1435 59.4162 29.879 59.2871 29.6409C59.1579 29.4028 58.9758 29.1975 58.7548 29.0408C58.5339 28.8841 58.2799 28.7802 58.0125 28.7371Z"
                fill="#2B2E2B"
              />
            </svg>